Coordinates
version=1
nRows=8
nColumns=63
inDegrees=yes

Units are S.I. units (second, meters, Newtons, ...)
If the header above contains a line with 'inDegrees', this indicates whether rotational values are in degrees (yes) or radians (no).

endheader
time	pelvis_tilt	pelvis_list	pelvis_rotation	pelvis_tx	pelvis_ty	pelvis_tz	hip_flexion_r	hip_adduction_r	hip_rotation_r	knee_angle_r	knee_angle_r_beta	ankle_angle_r	subtalar_angle_r	mtp_angle_r	hip_flexion_l	hip_adduction_l	hip_rotation_l	knee_angle_l	knee_angle_l_beta	ankle_angle_l	subtalar_angle_l	mtp_angle_l	L5_S1_Flex_Ext	L5_S1_Lat_Bending	L5_S1_axial_rotation	L4_L5_Flex_Ext	L4_L5_Lat_Bending	L4_L5_axial_rotation	L3_L4_Flex_Ext	L3_L4_Lat_Bending	L3_L4_axial_rotation	L2_L3_Flex_Ext	L2_L3_Lat_Bending	L2_L3_axial_rotation	L1_L2_Flex_Ext	L1_L2_Lat_Bending	L1_L2_axial_rotation	L1_T12_Flex_Ext	L1_T12_Lat_Bending	L1_T12_axial_rotation	Abs_r3	Abs_r2	Abs_r1	Abs_t1	Abs_t2	neck_flexion	neck_bending	neck_rotation	arm_flex_r	arm_add_r	arm_rot_r	elbow_flex_r	pro_sup_r	wrist_flex_r	wrist_dev_r	arm_flex_l	arm_add_l	arm_rot_l	elbow_flex_l	pro_sup_l	wrist_flex_l	wrist_dev_l
0.000000	4.869980	-3.741496	95.043304	0.130318	0.729759	0.781705	6.127136	0.421332	-14.410862	11.997488	0.209396	37.225260	19.026874	0.000000	11.757734	-5.717691	-13.369509	21.724691	0.379167	38.069275	16.719255	0.000000	0.449415	0.140937	0.387348	0.834609	0.187447	0.411557	0.738344	0.342675	0.411557	0.513637	0.342675	0.338929	0.417327	0.287400	0.314720	0.256796	0.218312	0.290511	3.210128	1.594312	2.154312	0.000000	0.000000	28.319917	-0.678005	-10.559359	15.618806	8.041466	212.595315	0.412616	17.254822	-23.442833	1.802865	19.748162	-2.642893	88.022406	25.799371	55.161708	4.580228	-1.872148
0.016949	5.004522	-3.585587	95.436037	0.129928	0.729665	0.780102	4.806055	1.073603	-7.795032	9.454472	0.165012	35.138319	10.302898	0.000000	11.521526	-5.710465	-12.717791	21.493550	0.375133	38.062227	17.030666	0.000000	0.464056	0.148449	0.367426	0.861798	0.197437	0.390390	0.762397	0.360939	0.390390	0.530370	0.360939	0.321498	0.430922	0.302718	0.298534	0.265162	0.229948	0.275569	3.314705	1.679287	2.043512	0.000000	0.000000	28.331372	-1.115868	-11.096724	15.538331	7.869371	211.201560	0.397137	17.264839	-23.564369	1.235387	19.773953	-2.821132	88.942256	26.175720	54.731325	4.490198	-1.791617
0.033898	5.090617	-3.461935	95.718793	0.129582	0.729570	0.778937	3.838625	1.535779	-2.898626	7.575309	0.132214	33.676906	3.837858	0.000000	11.336030	-5.679901	-12.207260	21.290266	0.371585	38.130616	17.288701	0.000000	0.472599	0.154017	0.351179	0.877664	0.204842	0.373127	0.776433	0.374476	0.373127	0.540134	0.374476	0.307281	0.438856	0.314071	0.285333	0.270043	0.238572	0.263384	3.375728	1.742267	1.953150	0.000000	0.000000	28.338360	-1.402893	-11.431246	15.508959	7.728495	209.855720	0.384506	17.417147	-23.601409	0.692074	19.815575	-2.947079	89.565969	26.441444	54.910737	4.387167	-1.783639
0.050847	5.133335	-3.367036	95.903205	0.129276	0.729477	0.778167	3.188519	1.827305	0.454797	6.293374	0.109840	32.774575	-0.598723	0.000000	11.195965	-5.628715	-11.823949	21.112953	0.368491	38.264973	17.497784	0.000000	0.475673	0.157895	0.338033	0.883372	0.210000	0.359160	0.781483	0.383905	0.359160	0.543646	0.383905	0.295779	0.441710	0.321979	0.274652	0.271799	0.244579	0.253525	3.397683	1.786135	1.880037	0.000000	0.000000	28.341267	-1.555617	-11.583555	15.524178	7.615636	208.566255	0.374562	17.689139	-23.565975	0.176744	19.869277	-3.026082	89.924258	26.608160	55.599937	4.275494	-1.835634
0.067797	5.137750	-3.297384	96.000904	0.129003	0.729389	0.777746	2.819414	1.967625	2.441682	5.542042	0.096727	32.364879	-3.237324	0.000000	11.096051	-5.559622	-11.553892	20.959724	0.365816	38.455830	17.662340	0.000000	0.473905	0.160338	0.327415	0.880088	0.213249	0.347879	0.778578	0.389845	0.347879	0.541626	0.389845	0.286488	0.440068	0.326961	0.266025	0.270789	0.248363	0.245562	3.385053	1.813772	1.820986	0.000000	0.000000	28.340480	-1.590578	-11.574282	15.577474	7.527592	207.341627	0.367141	18.058207	-23.470087	-0.306783	19.931303	-3.063487	90.047834	26.687488	56.698914	4.159534	-1.935022
0.084746	5.108934	-3.249476	96.023521	0.128757	0.729310	0.777630	2.694983	1.976184	3.238470	5.254688	0.091712	32.381369	-4.308421	0.000000	11.031010	-5.475335	-11.383125	20.828692	0.363529	38.693718	17.786792	0.000000	0.467923	0.161601	0.318753	0.868979	0.214929	0.338676	0.768750	0.392916	0.338676	0.534789	0.392916	0.278909	0.434513	0.329536	0.258987	0.267371	0.250320	0.239065	3.342325	1.828060	1.772811	0.000000	0.000000	28.336387	-1.524315	-11.424059	15.662335	7.461164	206.190294	0.362080	18.501745	-23.325766	-0.754689	19.997901	-3.064639	89.967407	26.691045	58.107659	4.043643	-2.069221
0.101695	5.051959	-3.219805	95.982690	0.128532	0.729244	0.777772	2.778901	1.872426	3.021604	5.364688	0.093631	32.757600	-4.042493	0.000000	10.995560	-5.378569	-11.297681	20.717970	0.361597	38.969167	17.875564	0.000000	0.458355	0.161939	0.311474	0.851211	0.215378	0.330941	0.753031	0.393737	0.330941	0.523854	0.393737	0.272540	0.425628	0.330225	0.253073	0.261904	0.250843	0.233605	3.273983	1.831881	1.732324	0.000000	0.000000	28.329376	-1.373365	-11.153515	15.772249	7.413148	205.120718	0.359217	18.997144	-23.145032	-1.163154	20.065317	-3.034885	89.713688	26.630449	59.726162	3.932178	-2.225651
0.118644	4.971898	-3.204868	95.890040	0.128323	0.729193	0.778129	3.034843	1.675796	1.967528	5.805416	0.101324	33.427124	-2.670018	0.000000	10.984423	-5.272039	-11.283594	20.625670	0.359986	39.272709	17.933081	0.000000	0.445829	0.161606	0.305004	0.827949	0.214936	0.324066	0.732452	0.392928	0.324066	0.509538	0.392928	0.266878	0.413997	0.329546	0.247815	0.254747	0.250327	0.228753	3.184512	1.828116	1.696339	0.000000	0.000000	28.319832	-1.154267	-10.783283	15.900701	7.380346	204.141359	0.358388	19.521796	-22.939908	-1.528360	20.129799	-2.979570	89.317389	26.517319	61.454413	3.829496	-2.391731
